<svg id="visual" viewBox="0 0 900 600" width="900" height="600" xmlns="http://www.w3.org/2000/svg" xmlns:xlink="http://www.w3.org/1999/xlink" version="1.1"><path d="M0 241L82 241L82 199L164 199L164 223L245 223L245 151L327 151L327 139L409 139L409 103L491 103L491 127L573 127L573 91L655 91L655 229L736 229L736 127L818 127L818 241L900 241L900 253L900 0L900 0L818 0L818 0L736 0L736 0L655 0L655 0L573 0L573 0L491 0L491 0L409 0L409 0L327 0L327 0L245 0L245 0L164 0L164 0L82 0L82 0L0 0Z" fill="#ebecf0"></path><path d="M0 373L82 373L82 367L164 367L164 403L245 403L245 319L327 319L327 337L409 337L409 385L491 385L491 367L573 367L573 319L655 319L655 301L736 301L736 367L818 367L818 373L900 373L900 385L900 251L900 239L818 239L818 125L736 125L736 227L655 227L655 89L573 89L573 125L491 125L491 101L409 101L409 137L327 137L327 149L245 149L245 221L164 221L164 197L82 197L82 239L0 239Z" fill="#e8e7ea"></path><path d="M0 451L82 451L82 481L164 481L164 487L245 487L245 403L327 403L327 463L409 463L409 493L491 493L491 451L573 451L573 403L655 403L655 469L736 469L736 463L818 463L818 445L900 445L900 481L900 383L900 371L818 371L818 365L736 365L736 299L655 299L655 317L573 317L573 365L491 365L491 383L409 383L409 335L327 335L327 317L245 317L245 401L164 401L164 365L82 365L82 371L0 371Z" fill="#e4e2e4"></path><path d="M0 535L82 535L82 529L164 529L164 559L245 559L245 505L327 505L327 559L409 559L409 559L491 559L491 535L573 535L573 499L655 499L655 511L736 511L736 529L818 529L818 487L900 487L900 559L900 479L900 443L818 443L818 461L736 461L736 467L655 467L655 401L573 401L573 449L491 449L491 491L409 491L409 461L327 461L327 401L245 401L245 485L164 485L164 479L82 479L82 449L0 449Z" fill="#dfddde"></path><path d="M0 601L82 601L82 601L164 601L164 601L245 601L245 601L327 601L327 601L409 601L409 601L491 601L491 601L573 601L573 601L655 601L655 601L736 601L736 601L818 601L818 601L900 601L900 601L900 557L900 485L818 485L818 527L736 527L736 509L655 509L655 497L573 497L573 533L491 533L491 557L409 557L409 557L327 557L327 503L245 503L245 557L164 557L164 527L82 527L82 533L0 533Z" fill="#dad9d9"></path></svg>